<svg xmlns="http://www.w3.org/2000/svg" version="1.0" width="1218" height="180" preserveAspectRatio="xMidYMid meet" style=""><rect id="backgroundrect" width="100%" height="100%" x="0" y="0" fill="none" stroke="none"/>


<g class="currentLayer" style=""><title>Layer 1</title><g transform="translate(0,180) scale(0.10000000149011612,-0.10000000149011612) " fill="#000000" stroke="none" id="svg_1" class="">
<path d="M4782.307861328125,1667.9930062294006 c-15,-37 -17,-34 36,-49 c23,-7 53,-21 68,-33 l26,-21 l-2,-361 l-3,-362 l-190,-26 c-104,-15 -216,-30 -247,-33 l-58,-7 l0,54 l0,54 l58,16 c68,19 114,48 156,100 c28,35 31,46 31,106 c0,58 -4,74 -28,108 c-103,149 -440,161 -574,21 c-120,-125 -25,-312 175,-344 l42,-7 l0,-62 l0,-63 l-136,-7 c-75,-4 -182,-4 -238,-1 l-102,7 l-12,-27 c-17,-35 -6,-47 80,-90 c62,-31 71,-33 112,-24 c24,5 167,26 317,45 c312,40 551,73 592,81 l27,6 l0,-77 l0,-76 l57,3 c56,3 57,4 65,38 c5,19 11,133 15,253 l6,217 l122,0 l123,0 l6,31 c3,17 6,45 6,61 l0,30 l-87,-6 c-49,-4 -107,-9 -130,-13 l-43,-5 l-2,223 l-3,224 l-53,18 c-30,9 -86,20 -126,24 l-72,6 l-14,-32 zm-334,-460 c58,-26 87,-67 80,-111 c-11,-71 -104,-117 -219,-108 c-78,7 -133,32 -159,72 c-34,56 -9,112 67,147 c55,25 175,25 231,0 z" id="svg_2"/>
<path d="M6512.307861328125,1672.9930062294006 c-15,-40 -14,-40 35,-55 c25,-7 56,-22 70,-33 l25,-19 l0,-535 l0,-534 l49,0 c27,0 53,6 59,13 c15,18 32,221 32,395 l0,152 l134,0 l134,0 l11,52 c8,33 8,55 2,61 c-6,6 -53,6 -129,-2 c-66,-6 -127,-11 -136,-11 c-14,0 -16,30 -18,248 l-3,247 l-53,18 c-30,9 -87,20 -128,24 c-73,6 -73,6 -84,-21 z" id="svg_3"/>
<path d="M8277.307861328125,1664.9930062294006 l-13,-33 l51,-17 c29,-10 62,-29 75,-44 l22,-25 l0,-726 l0,-726 l50,5 c28,3 53,8 56,11 c18,17 23,219 24,849 l0,697 l-37,10 c-84,22 -130,31 -171,31 c-39,0 -44,-3 -57,-32 z" id="svg_4"/>
<path d="M9942.307861328125,1667.9930062294006 c-15,-37 -17,-34 36,-49 c23,-7 53,-21 68,-33 l26,-20 l0,-525 l0,-525 l57,3 l58,3 l8,40 c4,22 10,147 14,278 l6,237 l138,0 l137,0 l11,52 c7,31 8,55 2,61 c-5,5 -44,5 -97,-2 c-49,-6 -113,-11 -141,-11 l-53,0 l-2,238 l-3,237 l-53,18 c-30,9 -86,20 -126,24 l-72,6 l-14,-32 z" id="svg_5"/>
<path d="M11732.307861328125,1667.9930062294006 c-15,-37 -17,-34 36,-49 c23,-7 53,-21 68,-33 l26,-20 l0,-155 l0,-154 l-140,0 l-140,0 l-6,28 c-12,48 -53,120 -91,158 c-20,20 -66,51 -102,68 c-62,29 -73,31 -181,31 c-108,0 -119,-2 -181,-31 c-78,-37 -129,-85 -166,-157 c-25,-46 -28,-63 -28,-147 c0,-84 3,-102 28,-152 c89,-182 351,-251 550,-146 c89,48 141,116 173,226 c2,9 40,12 144,12 l140,0 l0,-155 l0,-156 l57,3 l58,3 l9,45 c5,25 9,207 10,405 l1,360 l-53,18 c-30,9 -86,20 -126,24 l-72,6 l-14,-32 zm-448,-243 c53,-16 122,-78 143,-130 c56,-139 -26,-284 -180,-319 c-101,-22 -222,39 -266,136 c-22,47 -24,133 -6,178 c48,114 183,173 309,135 z" id="svg_6"/>
<path d="M4217.307861328125,1669.9930062294006 c-25,-24 -17,-48 20,-66 c36,-17 49,-45 43,-88 c-3,-23 -8,-24 -83,-27 c-44,-2 -132,1 -195,7 c-120,10 -140,6 -140,-30 c0,-23 33,-55 83,-80 c31,-16 44,-18 75,-9 c22,6 178,10 389,10 l352,0 l6,55 c4,31 5,58 2,61 c-2,3 -58,0 -123,-5 c-66,-6 -145,-11 -176,-11 l-57,0 l-3,83 l-3,82 l-45,11 c-86,21 -129,23 -145,7 z" id="svg_7"/>
<path d="M5925.307861328125,1664.9930062294006 c-6,-7 -13,-23 -17,-34 c-5,-17 -2,-23 19,-28 c44,-11 65,-41 65,-92 l0,-46 l-207,3 l-208,3 l-9,-26 c-12,-33 1,-50 66,-87 c47,-27 50,-28 101,-14 c40,10 130,13 394,11 l342,-3 l5,29 c3,16 6,43 6,61 l0,33 l-180,-5 l-179,-6 l-3,89 l-3,88 l-41,12 c-74,21 -139,27 -151,12 z" id="svg_8"/>
<path d="M2315.307861328125,1587.9930062294006 c-7,-12 -13,-27 -13,-34 c0,-18 35,-50 88,-80 c40,-23 45,-23 94,-10 c38,9 134,13 356,13 l303,0 l-6,-72 c-7,-84 -33,-294 -43,-353 l-7,-40 l-430,0 c-237,0 -468,2 -515,5 l-84,5 l-11,-29 c-9,-26 -7,-31 29,-62 c21,-18 58,-41 82,-50 c40,-15 48,-15 109,0 c57,14 141,16 663,16 l597,-1 l7,23 c3,13 6,43 7,67 l1,43 l-72,-6 c-40,-3 -115,-9 -167,-12 l-94,-7 l6,34 c48,271 59,350 64,442 c5,88 3,107 -8,108 c-8,0 -214,1 -459,2 c-245,2 -454,6 -465,10 c-15,6 -23,2 -32,-12 z" id="svg_9"/>
<path d="M9368.307861328125,1541.9930062294006 c-21,-32 -21,-33 17,-49 c17,-7 43,-25 56,-40 c23,-24 23,-28 11,-68 c-28,-94 -154,-262 -334,-445 l-120,-123 l29,-30 c49,-51 63,-44 209,103 c72,72 154,160 180,195 c27,34 52,62 56,62 c6,0 252,-263 312,-333 l27,-32 l45,45 c25,24 46,49 46,56 c0,6 -83,89 -184,183 l-184,172 l41,70 c29,52 42,85 45,124 l4,53 l-48,25 c-52,26 -146,57 -175,57 c-9,0 -24,-11 -33,-25 z" id="svg_10"/>
<path d="M7409.307861328125,1438.9930062294006 c-14,-31 -2,-49 56,-86 c43,-27 49,-28 91,-17 c46,11 396,16 396,5 c0,-3 -16,-36 -35,-73 c-85,-162 -303,-401 -488,-536 c-52,-38 -96,-75 -96,-80 c-1,-6 12,-26 27,-44 l28,-34 l40,21 c74,38 208,144 325,258 l115,114 l35,-43 c20,-23 86,-105 148,-182 c62,-77 115,-142 117,-144 c6,-7 94,81 94,94 c0,8 -84,100 -296,325 l-33,35 l53,77 c79,116 128,222 130,282 l1,50 l-349,0 l-349,1 l-10,-23 z" id="svg_11"/>
<path d="M5908.307861328125,1260.9930062294006 c-39,-14 -100,-55 -124,-84 c-65,-76 -82,-222 -38,-315 c29,-62 76,-107 141,-137 c42,-19 67,-23 155,-23 c88,0 113,4 155,23 c109,50 168,144 168,267 c0,124 -67,222 -179,265 c-66,24 -216,27 -278,4 zm239,-118 c100,-54 115,-207 29,-288 c-38,-35 -74,-48 -135,-48 c-147,0 -232,135 -168,266 c45,95 170,127 274,70 z" id="svg_12"/>
<path d="M11769.307861328125,772.9930062294006 c-12,-32 -7,-46 18,-52 c43,-11 65,-49 65,-115 l0,-59 l-275,0 l-275,0 l0,74 c0,53 -4,79 -15,89 c-17,18 -99,37 -156,37 c-34,0 -41,-4 -50,-27 c-10,-26 0,-42 27,-43 c5,0 20,-9 32,-20 c21,-20 22,-27 22,-244 c0,-211 1,-225 21,-250 l20,-26 l378,0 c280,0 380,3 389,12 c9,9 12,91 12,309 l0,297 l-32,12 c-18,6 -65,14 -104,17 c-61,5 -72,3 -77,-11 zm83,-431 l0,-95 l-275,0 l-275,0 l0,95 l0,95 l275,0 l275,0 l0,-95 z" id="svg_13"/>
<path d="M2318.307861328125,691.9930062294006 c-10,-35 -7,-42 24,-55 c17,-7 35,-21 40,-31 c6,-10 10,-106 10,-214 c0,-191 5,-228 34,-247 c13,-9 797,-11 820,-2 c14,5 16,40 16,285 c0,153 -3,279 -7,280 c-5,0 -216,1 -470,2 c-454,2 -462,2 -467,-18 zm814,-270 l0,-175 l-305,0 l-305,0 l0,175 l0,175 l305,0 l305,0 l0,-175 z" id="svg_14"/>
<path d="M9310.307861328125,660.9930062294006 c-5,-4 -8,-18 -8,-30 c0,-18 8,-25 36,-33 c73,-20 74,-24 74,-218 c0,-171 0,-174 25,-198 l24,-25 l409,0 l410,0 l6,23 c3,12 6,42 6,66 l0,43 l-82,-8 c-46,-5 -213,-9 -373,-9 l-290,0 l-3,182 c-2,176 -3,183 -24,194 c-26,14 -199,25 -210,13 z" id="svg_15"/>
<path d="M4466.307861328125,596.9930062294006 c-71,-23 -145,-83 -174,-141 c-27,-52 -27,-146 -1,-198 c23,-44 75,-93 129,-120 c104,-52 292,-55 398,-7 c109,50 167,129 167,226 c0,101 -52,174 -160,226 c-52,25 -71,28 -178,31 c-99,2 -131,0 -181,-17 zm266,-102 c121,-37 156,-154 70,-231 c-45,-42 -92,-57 -176,-57 c-170,0 -271,114 -198,225 c46,70 186,99 304,63 z" id="svg_16"/>
<path d="M5892.307861328125,572.9930062294006 c-15,-40 -13,-43 26,-49 c68,-11 74,-25 74,-162 c0,-129 10,-179 40,-195 c11,-6 177,-10 419,-10 l400,0 l6,44 c10,67 5,82 -30,78 c-17,-2 -180,-5 -362,-8 l-332,-6 l-3,148 l-3,149 l-26,12 c-14,7 -65,16 -112,19 l-86,7 l-11,-27 z" id="svg_17"/>
</g><rect fill="#b4e2c8" stroke-dashoffset="" fill-rule="nonzero" id="svg_18" x="8.02126693725586" y="22.00003433227539" width="135.97874450683594" height="135.99996948242188" style="color: rgb(0, 0, 0);" class="" fill-opacity="1" stroke-opacity="1" stroke="#fbd6a9" stroke-width="10"/><rect fill="#fbd6a9" stroke-width="5" stroke-dashoffset="" fill-rule="nonzero" id="svg_19" x="53" y="94" width="46" height="62" style="color: rgb(251, 214, 169);" class=""/><rect fill="#ffbdbc" stroke-width="1" stroke-dashoffset="" fill-rule="nonzero" x="53" y="27.000001907348633" width="46" height="67" style="color: rgb(251, 214, 169);" class="" id="svg_20" fill-opacity="1" stroke="none"/></g></svg>