<svg xmlns="http://www.w3.org/2000/svg" version="1.0" width="1218" height="180" preserveAspectRatio="xMidYMid meet" style=""><rect id="backgroundrect" width="100%" height="100%" x="0" y="0" fill="none" stroke="none"/>


<g class="currentLayer" style=""><title>Layer 1</title>
















<rect fill="#b4e2c8" stroke-dashoffset="" fill-rule="nonzero" id="svg_18" x="8.02126693725586" y="22.00003433227539" width="135.97874450683594" height="135.99996948242188" style="color: rgb(0, 0, 0);" class="" fill-opacity="1" stroke-opacity="1" stroke="#fbd6a9" stroke-width="10"/><rect fill="#fbd6a9" stroke-width="5" stroke-dashoffset="" fill-rule="nonzero" id="svg_19" x="53" y="94" width="46" height="62" style="color: rgb(251, 214, 169);" class=""/><g class="" id="svg_1" opacity="1" fill="#000000" fill-opacity="1" filter="" stroke-width="3" stroke-opacity="1" stroke="#000000"><path d="M478.23079325900653,13.200696891556674 c-1.5000000223517418,3.7000000551342964 -1.700000025331974,3.400000050663948 3.6000000536441803,4.90000007301569 c2.3000000342726707,0.7000000104308128 5.300000078976154,2.1000000312924385 6.800000101327896,3.300000049173832 l2.600000038743019,2.1000000312924385 l-0.20000000298023224,36.10000053793192 l-0.30000000447034836,36.200000539422035 l-19.000000283122063,2.600000038743019 c-10.400000154972076,1.5000000223517418 -21.600000321865082,3.0000000447034836 -24.70000036805868,3.300000049173832 l-5.800000086426735,0.7000000104308128 l0,-5.4000000804662704 l0,-5.4000000804662704 l5.800000086426735,-1.600000023841858 c6.800000101327896,-1.9000000283122063 11.400000169873238,-4.800000071525574 15.600000232458115,-10.000000149011612 c2.8000000417232513,-3.500000052154064 3.1000000461935997,-4.6000000685453415 3.1000000461935997,-10.600000157952309 c0,-5.800000086426735 -0.4000000059604645,-7.400000110268593 -2.8000000417232513,-10.800000160932541 c-10.30000015348196,-14.900000222027302 -44.00000065565109,-16.100000239908695 -57.40000085532665,-2.1000000312924385 c-12.000000178813934,12.500000186264515 -2.500000037252903,31.20000046491623 17.50000026077032,34.400000512599945 l4.200000062584877,0.7000000104308128 l0,6.200000092387199 l0,6.3000000938773155 l-13.600000202655792,0.7000000104308128 c-7.500000111758709,0.4000000059604645 -18.200000271201134,0.4000000059604645 -23.800000354647636,0.10000000149011612 l-10.200000151991844,-0.7000000104308128 l-1.2000000178813934,2.7000000402331352 c-1.700000025331974,3.500000052154064 -0.6000000089406967,4.700000070035458 8.00000011920929,9.00000013411045 c6.200000092387199,3.1000000461935997 7.1000001057982445,3.300000049173832 11.200000166893005,2.400000035762787 c2.400000035762787,-0.5000000074505806 16.700000248849392,-2.600000038743019 31.70000047236681,-4.500000067055225 c31.20000046491623,-4.000000059604645 55.10000082105398,-7.300000108778477 59.20000088214874,-8.100000120699406 l2.7000000402331352,-0.6000000089406967 l0,7.700000114738941 l0,7.600000113248825 l5.700000084936619,-0.30000000447034836 c5.600000083446503,-0.30000000447034836 5.700000084936619,-0.4000000059604645 6.500000096857548,-3.8000000566244125 c0.5000000074505806,-1.9000000283122063 1.1000000163912773,-13.300000198185444 1.5000000223517418,-25.300000376999378 l0.6000000089406967,-21.700000323355198 l12.200000181794167,0 l12.300000183284283,0 l0.6000000089406967,-3.1000000461935997 c0.30000000447034836,-1.700000025331974 0.6000000089406967,-4.500000067055225 0.6000000089406967,-6.100000090897083 l0,-3.0000000447034836 l-8.700000129640102,0.6000000089406967 c-4.90000007301569,0.4000000059604645 -10.700000159442425,0.9000000134110451 -13.000000193715096,1.3000000193715096 l-4.300000064074993,0.5000000074505806 l-0.20000000298023224,-22.300000332295895 l-0.30000000447034836,-22.40000033378601 l-5.300000078976154,-1.8000000268220901 c-3.0000000447034836,-0.9000000134110451 -8.600000128149986,-2.0000000298023224 -12.600000187754631,-2.400000035762787 l-7.200000107288361,-0.6000000089406967 l-1.4000000208616257,3.200000047683716 zm-33.400000497698784,46.000000685453415 c5.800000086426735,2.600000038743019 8.700000129640102,6.70000009983778 8.00000011920929,11.10000016540289 c-1.1000000163912773,7.1000001057982445 -10.400000154972076,11.700000174343586 -21.90000032633543,10.800000160932541 c-7.800000116229057,-0.7000000104308128 -13.300000198185444,-3.200000047683716 -15.900000236928463,-7.200000107288361 c-3.400000050663948,-5.600000083446503 -0.9000000134110451,-11.200000166893005 6.70000009983778,-14.70000021904707 c5.500000081956387,-2.500000037252903 17.50000026077032,-2.500000037252903 23.100000344216824,0 z" id="svg_2" class="" opacity="1" fill="#000000" fill-opacity="1" filter="" stroke-width="3" stroke="#000000"/><path d="M651.2307958369074,12.700696884106094 c-1.5000000223517418,4.000000059604645 -1.4000000208616257,4.000000059604645 3.500000052154064,5.500000081956387 c2.500000037252903,0.7000000104308128 5.600000083446503,2.2000000327825546 7.000000104308128,3.300000049173832 l2.500000037252903,1.9000000283122063 l0,53.500000797212124 l0,53.40000079572201 l4.90000007301569,0 c2.7000000402331352,0 5.300000078976154,-0.6000000089406967 5.900000087916851,-1.3000000193715096 c1.5000000223517418,-1.8000000268220901 3.200000047683716,-22.100000329315662 3.200000047683716,-39.50000058859587 l0,-15.20000022649765 l13.40000019967556,0 l13.40000019967556,0 l1.1000000163912773,-5.200000077486038 c0.800000011920929,-3.300000049173832 0.800000011920929,-5.500000081956387 0.20000000298023224,-6.100000090897083 c-0.6000000089406967,-0.6000000089406967 -5.300000078976154,-0.6000000089406967 -12.90000019222498,0.20000000298023224 c-6.600000098347664,0.6000000089406967 -12.700000189244747,1.1000000163912773 -13.600000202655792,1.1000000163912773 c-1.4000000208616257,0 -1.600000023841858,-3.0000000447034836 -1.8000000268220901,-24.800000369548798 l-0.30000000447034836,-24.70000036805868 l-5.300000078976154,-1.8000000268220901 c-3.0000000447034836,-0.9000000134110451 -8.700000129640102,-2.0000000298023224 -12.800000190734863,-2.400000035762787 c-7.300000108778477,-0.6000000089406967 -7.300000108778477,-0.6000000089406967 -8.400000125169754,2.1000000312924385 z" id="svg_3" class="" opacity="1" fill="#000000" fill-opacity="1" filter="" stroke-width="3" stroke="#000000"/><path d="M827.7307984669624,13.500696896027023 l-1.3000000193715096,3.300000049173832 l5.100000075995922,1.700000025331974 c2.9000000432133675,1.0000000149011612 6.200000092387199,2.9000000432133675 7.500000111758709,4.400000065565109 l2.2000000327825546,2.500000037252903 l0,72.6000010818243 l0,72.6000010818243 l5.000000074505806,-0.5000000074505806 c2.8000000417232513,-0.30000000447034836 5.300000078976154,-0.800000011920929 5.600000083446503,-1.1000000163912773 c1.8000000268220901,-1.700000025331974 2.3000000342726707,-21.90000032633543 2.400000035762787,-84.90000126510859 l0,-69.70000103861094 l-3.7000000551342964,-1.0000000149011612 c-8.400000125169754,-2.2000000327825546 -13.000000193715096,-3.1000000461935997 -17.100000254809856,-3.1000000461935997 c-3.9000000581145287,0 -4.400000065565109,0.30000000447034836 -5.700000084936619,3.200000047683716 z" id="svg_4" class="" opacity="1" fill="#000000" fill-opacity="1" filter="" stroke-width="3" stroke="#000000"/><path d="M994.2308009480057,13.200696891556674 c-1.5000000223517418,3.7000000551342964 -1.700000025331974,3.400000050663948 3.6000000536441803,4.90000007301569 c2.3000000342726707,0.7000000104308128 5.300000078976154,2.1000000312924385 6.800000101327896,3.300000049173832 l2.600000038743019,2.0000000298023224 l0,52.50000078231096 l0,52.50000078231096 l5.700000084936619,-0.30000000447034836 l5.800000086426735,-0.30000000447034836 l0.800000011920929,-4.000000059604645 c0.4000000059604645,-2.2000000327825546 1.0000000149011612,-14.70000021904707 1.4000000208616257,-27.80000041425228 l0.6000000089406967,-23.70000035315752 l13.800000205636024,0 l13.700000204145908,0 l1.1000000163912773,-5.200000077486038 c0.7000000104308128,-3.1000000461935997 0.800000011920929,-5.500000081956387 0.20000000298023224,-6.100000090897083 c-0.5000000074505806,-0.5000000074505806 -4.400000065565109,-0.5000000074505806 -9.700000144541264,0.20000000298023224 c-4.90000007301569,0.6000000089406967 -11.300000168383121,1.1000000163912773 -14.100000210106373,1.1000000163912773 l-5.300000078976154,0 l-0.20000000298023224,-23.800000354647636 l-0.30000000447034836,-23.70000035315752 l-5.300000078976154,-1.8000000268220901 c-3.0000000447034836,-0.9000000134110451 -8.600000128149986,-2.0000000298023224 -12.600000187754631,-2.400000035762787 l-7.200000107288361,-0.6000000089406967 l-1.4000000208616257,3.200000047683716 z" id="svg_5" class="" opacity="1" fill="#000000" fill-opacity="1" filter="" stroke-width="3" stroke="#000000"/><path d="M1173.2308036153136,13.200696891556674 c-1.5000000223517418,3.7000000551342964 -1.700000025331974,3.400000050663948 3.6000000536441803,4.90000007301569 c2.3000000342726707,0.7000000104308128 5.300000078976154,2.1000000312924385 6.800000101327896,3.300000049173832 l2.600000038743019,2.0000000298023224 l0,15.500000230967999 l0,15.400000229477882 l-14.000000208616257,0 l-14.000000208616257,0 l-0.6000000089406967,-2.8000000417232513 c-1.2000000178813934,-4.800000071525574 -5.300000078976154,-12.000000178813934 -9.100000135600567,-15.800000235438347 c-2.0000000298023224,-2.0000000298023224 -6.600000098347664,-5.100000075995922 -10.200000151991844,-6.800000101327896 c-6.200000092387199,-2.9000000432133675 -7.300000108778477,-3.1000000461935997 -18.100000269711018,-3.1000000461935997 c-10.800000160932541,0 -11.900000177323818,0.20000000298023224 -18.100000269711018,3.1000000461935997 c-7.800000116229057,3.7000000551342964 -12.90000019222498,8.50000012665987 -16.600000247359276,15.70000023394823 c-2.500000037252903,4.6000000685453415 -2.8000000417232513,6.3000000938773155 -2.8000000417232513,14.70000021904707 c0,8.400000125169754 0.30000000447034836,10.200000151991844 2.8000000417232513,15.20000022649765 c8.900000132620335,18.200000271201134 35.10000052303076,25.100000374019146 55.000000819563866,14.600000217556953 c8.900000132620335,-4.800000071525574 14.100000210106373,-11.60000017285347 17.30000025779009,-22.600000336766243 c0.20000000298023224,-0.9000000134110451 4.000000059604645,-1.2000000178813934 14.400000214576721,-1.2000000178813934 l14.000000208616257,0 l0,15.500000230967999 l0,15.600000232458115 l5.700000084936619,-0.30000000447034836 l5.800000086426735,-0.30000000447034836 l0.9000000134110451,-4.500000067055225 c0.5000000074505806,-2.500000037252903 0.9000000134110451,-20.700000308454037 1.0000000149011612,-40.50000060349703 l0.10000000149011612,-36.0000005364418 l-5.300000078976154,-1.8000000268220901 c-3.0000000447034836,-0.9000000134110451 -8.600000128149986,-2.0000000298023224 -12.600000187754631,-2.400000035762787 l-7.200000107288361,-0.6000000089406967 l-1.4000000208616257,3.200000047683716 zm-44.80000066757202,24.300000362098217 c5.300000078976154,1.600000023841858 12.200000181794167,7.800000116229057 14.300000213086605,13.000000193715096 c5.600000083446503,13.90000020712614 -2.600000038743019,28.400000423192978 -18.0000002682209,31.900000475347042 c-10.100000150501728,2.2000000327825546 -22.20000033080578,-3.9000000581145287 -26.600000396370888,-13.600000202655792 c-2.2000000327825546,-4.700000070035458 -2.400000035762787,-13.300000198185444 -0.6000000089406967,-17.80000026524067 c4.800000071525574,-11.400000169873238 18.30000027269125,-17.30000025779009 30.90000046044588,-13.500000201165676 z" id="svg_6" class="" opacity="1" fill="#000000" fill-opacity="1" filter="" stroke-width="3" stroke="#000000"/><path d="M421.7307924170909,13.000696888576442 c-2.500000037252903,2.400000035762787 -1.700000025331974,4.800000071525574 2.0000000298023224,6.600000098347664 c3.6000000536441803,1.700000025331974 4.90000007301569,4.500000067055225 4.300000064074993,8.800000131130219 c-0.30000000447034836,2.3000000342726707 -0.800000011920929,2.400000035762787 -8.300000123679638,2.7000000402331352 c-4.400000065565109,0.20000000298023224 -13.200000196695328,-0.10000000149011612 -19.500000290572643,-0.7000000104308128 c-12.000000178813934,-1.0000000149011612 -14.000000208616257,-0.6000000089406967 -14.000000208616257,3.0000000447034836 c0,2.3000000342726707 3.300000049173832,5.500000081956387 8.300000123679638,8.00000011920929 c3.1000000461935997,1.600000023841858 4.400000065565109,1.8000000268220901 7.500000111758709,0.9000000134110451 c2.2000000327825546,-0.6000000089406967 17.80000026524067,-1.0000000149011612 38.90000057965517,-1.0000000149011612 l35.200000524520874,0 l0.6000000089406967,-5.500000081956387 c0.4000000059604645,-3.1000000461935997 0.5000000074505806,-5.800000086426735 0.20000000298023224,-6.100000090897083 c-0.20000000298023224,-0.30000000447034836 -5.800000086426735,0 -12.300000183284283,0.5000000074505806 c-6.600000098347664,0.6000000089406967 -14.500000216066837,1.1000000163912773 -17.600000262260437,1.1000000163912773 l-5.700000084936619,0 l-0.30000000447034836,-8.300000123679638 l-0.30000000447034836,-8.200000122189522 l-4.500000067055225,-1.1000000163912773 c-8.600000128149986,-2.1000000312924385 -12.90000019222498,-2.3000000342726707 -14.500000216066837,-0.7000000104308128 z" id="svg_7" class="" opacity="1" fill="#000000" fill-opacity="1" filter="" stroke-width="3" stroke="#000000"/><path d="M592.5307949622093,13.500696896027023 c-0.6000000089406967,0.7000000104308128 -1.3000000193715096,2.3000000342726707 -1.700000025331974,3.400000050663948 c-0.5000000074505806,1.700000025331974 -0.20000000298023224,2.3000000342726707 1.9000000283122063,2.8000000417232513 c4.400000065565109,1.1000000163912773 6.500000096857548,4.100000061094761 6.500000096857548,9.200000137090683 l0,4.6000000685453415 l-20.700000308454037,-0.30000000447034836 l-20.800000309944153,-0.30000000447034836 l-0.9000000134110451,2.600000038743019 c-1.2000000178813934,3.300000049173832 0.10000000149011612,5.000000074505806 6.600000098347664,8.700000129640102 c4.700000070035458,2.7000000402331352 5.000000074505806,2.8000000417232513 10.100000150501728,1.4000000208616257 c4.000000059604645,-1.0000000149011612 13.000000193715096,-1.3000000193715096 39.40000058710575,-1.1000000163912773 l34.20000050961971,0.30000000447034836 l0.5000000074505806,-2.9000000432133675 c0.30000000447034836,-1.600000023841858 0.6000000089406967,-4.300000064074993 0.6000000089406967,-6.100000090897083 l0,-3.300000049173832 l-18.0000002682209,0.5000000074505806 l-17.900000266730785,0.6000000089406967 l-0.30000000447034836,-8.900000132620335 l-0.30000000447034836,-8.800000131130219 l-4.100000061094761,-1.2000000178813934 c-7.400000110268593,-2.1000000312924385 -13.90000020712614,-2.7000000402331352 -15.100000225007534,-1.2000000178813934 z" id="svg_8" class="" opacity="1" fill="#000000" fill-opacity="1" filter="" stroke-width="3" stroke="#000000"/><path d="M231.53078958289007,21.200697010765964 c-0.7000000104308128,1.2000000178813934 -1.3000000193715096,2.7000000402331352 -1.3000000193715096,3.400000050663948 c0,1.8000000268220901 3.500000052154064,5.000000074505806 8.800000131130219,8.00000011920929 c4.000000059604645,2.3000000342726707 4.500000067055225,2.3000000342726707 9.400000140070915,1.0000000149011612 c3.8000000566244125,-0.9000000134110451 13.40000019967556,-1.3000000193715096 35.60000053048134,-1.3000000193715096 l30.300000451505184,0 l-0.6000000089406967,7.200000107288361 c-0.7000000104308128,8.400000125169754 -3.300000049173832,29.40000043809414 -4.300000064074993,35.30000052601099 l-0.7000000104308128,4.000000059604645 l-43.00000064074993,0 c-23.70000035315752,0 -46.800000697374344,-0.20000000298023224 -51.5000007674098,-0.5000000074505806 l-8.400000125169754,-0.5000000074505806 l-1.1000000163912773,2.9000000432133675 c-0.9000000134110451,2.600000038743019 -0.7000000104308128,3.1000000461935997 2.9000000432133675,6.200000092387199 c2.1000000312924385,1.8000000268220901 5.800000086426735,4.100000061094761 8.200000122189522,5.000000074505806 c4.000000059604645,1.5000000223517418 4.800000071525574,1.5000000223517418 10.900000162422657,0 c5.700000084936619,-1.4000000208616257 14.100000210106373,-1.600000023841858 66.30000098794699,-1.600000023841858 l59.70000088959932,0.10000000149011612 l0.7000000104308128,-2.3000000342726707 c0.30000000447034836,-1.3000000193715096 0.6000000089406967,-4.300000064074993 0.7000000104308128,-6.70000009983778 l0.10000000149011612,-4.300000064074993 l-7.200000107288361,0.6000000089406967 c-4.000000059604645,0.30000000447034836 -11.500000171363354,0.9000000134110451 -16.700000248849392,1.2000000178813934 l-9.400000140070915,0.7000000104308128 l0.6000000089406967,-3.400000050663948 c4.800000071525574,-27.10000040382147 5.900000087916851,-35.00000052154064 6.400000095367432,-44.200000658631325 c0.5000000074505806,-8.800000131130219 0.30000000447034836,-10.700000159442425 -0.800000011920929,-10.800000160932541 c-0.800000011920929,0 -21.40000031888485,-0.10000000149011612 -45.9000006839633,-0.20000000298023224 c-24.50000036507845,-0.20000000298023224 -45.40000067651272,-0.6000000089406967 -46.500000692903996,-1.0000000149011612 c-1.5000000223517418,-0.6000000089406967 -2.3000000342726707,-0.20000000298023224 -3.200000047683716,1.2000000178813934 z" id="svg_9" class="" opacity="1" fill="#000000" fill-opacity="1" filter="" stroke-width="3" stroke="#000000"/><path d="M936.830800092679,25.800697079311306 c-2.1000000312924385,3.200000047683716 -2.1000000312924385,3.300000049173832 1.700000025331974,4.90000007301569 c1.700000025331974,0.7000000104308128 4.300000064074993,2.500000037252903 5.600000083446503,4.000000059604645 c2.3000000342726707,2.400000035762787 2.3000000342726707,2.8000000417232513 1.1000000163912773,6.800000101327896 c-2.8000000417232513,9.400000140070915 -15.400000229477882,26.200000390410423 -33.400000497698784,44.50000066310167 l-12.000000178813934,12.300000183284283 l2.9000000432133675,3.0000000447034836 c4.90000007301569,5.100000075995922 6.3000000938773155,4.400000065565109 20.90000031143427,-10.30000015348196 c7.200000107288361,-7.200000107288361 15.400000229477882,-16.00000023841858 18.0000002682209,-19.500000290572643 c2.7000000402331352,-3.400000050663948 5.200000077486038,-6.200000092387199 5.600000083446503,-6.200000092387199 c0.6000000089406967,0 25.200000375509262,26.30000039190054 31.20000046491623,33.30000049620867 l2.7000000402331352,3.200000047683716 l4.500000067055225,-4.500000067055225 c2.500000037252903,-2.400000035762787 4.6000000685453415,-4.90000007301569 4.6000000685453415,-5.600000083446503 c0,-0.6000000089406967 -8.300000123679638,-8.900000132620335 -18.400000274181366,-18.30000027269125 l-18.400000274181366,-17.200000256299973 l4.100000061094761,-7.000000104308128 c2.9000000432133675,-5.200000077486038 4.200000062584877,-8.50000012665987 4.500000067055225,-12.400000184774399 l0.4000000059604645,-5.300000078976154 l-4.800000071525574,-2.500000037252903 c-5.200000077486038,-2.600000038743019 -14.600000217556953,-5.700000084936619 -17.50000026077032,-5.700000084936619 c-0.9000000134110451,0 -2.400000035762787,1.1000000163912773 -3.300000049173832,2.500000037252903 z" id="svg_10" class="" opacity="1" fill="#000000" fill-opacity="1" filter="" stroke-width="3" stroke="#000000"/><path d="M740.9307971735416,36.100697232793266 c-1.4000000208616257,3.1000000461935997 -0.20000000298023224,4.90000007301569 5.600000083446503,8.600000128149986 c4.300000064074993,2.7000000402331352 4.90000007301569,2.8000000417232513 9.100000135600567,1.700000025331974 c4.6000000685453415,-1.1000000163912773 39.60000059008598,-1.600000023841858 39.60000059008598,-0.5000000074505806 c0,0.30000000447034836 -1.600000023841858,3.6000000536441803 -3.500000052154064,7.300000108778477 c-8.50000012665987,16.20000024139881 -30.300000451505184,40.100000597536564 -48.800000727176666,53.60000079870224 c-5.200000077486038,3.8000000566244125 -9.600000143051147,7.500000111758709 -9.600000143051147,8.00000011920929 c-0.10000000149011612,0.6000000089406967 1.2000000178813934,2.600000038743019 2.7000000402331352,4.400000065565109 l2.8000000417232513,3.400000050663948 l4.000000059604645,-2.1000000312924385 c7.400000110268593,-3.8000000566244125 20.800000309944153,-14.400000214576721 32.50000048428774,-25.80000038444996 l11.500000171363354,-11.400000169873238 l3.500000052154064,4.300000064074993 c2.0000000298023224,2.3000000342726707 8.600000128149986,10.500000156462193 14.800000220537186,18.200000271201134 c6.200000092387199,7.700000114738941 11.500000171363354,14.200000211596489 11.700000174343586,14.400000214576721 c0.6000000089406967,0.7000000104308128 9.400000140070915,-8.100000120699406 9.400000140070915,-9.400000140070915 c0,-0.800000011920929 -8.400000125169754,-10.000000149011612 -29.60000044107437,-32.50000048428774 l-3.300000049173832,-3.500000052154064 l5.300000078976154,-7.700000114738941 c7.900000117719173,-11.60000017285347 12.800000190734863,-22.20000033080578 13.000000193715096,-28.200000420212746 l0.10000000149011612,-5.000000074505806 l-34.900000520050526,0 l-34.900000520050526,-0.10000000149011612 l-1.0000000149011612,2.3000000342726707 z" id="svg_11" class="" opacity="1" fill="#000000" fill-opacity="1" filter="" stroke-width="3" stroke="#000000"/><path d="M590.8307949368773,53.900697498033935 c-3.9000000581145287,1.4000000208616257 -10.000000149011612,5.500000081956387 -12.400000184774399,8.400000125169754 c-6.500000096857548,7.600000113248825 -8.200000122189522,22.20000033080578 -3.8000000566244125,31.500000469386578 c2.9000000432133675,6.200000092387199 7.600000113248825,10.700000159442425 14.100000210106373,13.700000204145908 c4.200000062584877,1.9000000283122063 6.70000009983778,2.3000000342726707 15.500000230967999,2.3000000342726707 c8.800000131130219,0 11.300000168383121,-0.4000000059604645 15.500000230967999,-2.3000000342726707 c10.900000162422657,-5.000000074505806 16.800000250339508,-14.400000214576721 16.800000250339508,-26.700000397861004 c0,-12.400000184774399 -6.70000009983778,-22.20000033080578 -17.900000266730785,-26.50000039488077 c-6.600000098347664,-2.400000035762787 -21.600000321865082,-2.7000000402331352 -27.80000041425228,-0.4000000059604645 zm23.900000356137753,11.800000175833702 c10.000000149011612,5.4000000804662704 11.500000171363354,20.700000308454037 2.9000000432133675,28.800000429153442 c-3.8000000566244125,3.500000052154064 -7.400000110268593,4.800000071525574 -13.500000201165676,4.800000071525574 c-14.70000021904707,0 -23.20000034570694,-13.500000201165676 -16.800000250339508,-26.600000396370888 c4.500000067055225,-9.500000141561031 17.00000025331974,-12.700000189244747 27.400000408291817,-7.000000104308128 z" id="svg_12" class="" opacity="1" fill="#000000" fill-opacity="1" filter="" stroke-width="3" stroke="#000000"/><path d="M1176.9308036704479,102.7006982252106 c-1.2000000178813934,3.200000047683716 -0.7000000104308128,4.6000000685453415 1.8000000268220901,5.200000077486038 c4.300000064074993,1.1000000163912773 6.500000096857548,4.90000007301569 6.500000096857548,11.500000171363354 l0,5.900000087916851 l-27.500000409781933,0 l-27.500000409781933,0 l0,-7.400000110268593 c0,-5.300000078976154 -0.4000000059604645,-7.900000117719173 -1.5000000223517418,-8.900000132620335 c-1.700000025331974,-1.8000000268220901 -9.900000147521496,-3.7000000551342964 -15.600000232458115,-3.7000000551342964 c-3.400000050663948,0 -4.100000061094761,0.4000000059604645 -5.000000074505806,2.7000000402331352 c-1.0000000149011612,2.600000038743019 0,4.200000062584877 2.7000000402331352,4.300000064074993 c0.5000000074505806,0 2.0000000298023224,0.9000000134110451 3.200000047683716,2.0000000298023224 c2.1000000312924385,2.0000000298023224 2.2000000327825546,2.7000000402331352 2.2000000327825546,24.400000363588333 c0,21.1000003144145 0.10000000149011612,22.500000335276127 2.1000000312924385,25.00000037252903 l2.0000000298023224,2.600000038743019 l37.80000056326389,0 c28.000000417232513,0 38.000000566244125,-0.30000000447034836 38.90000057965517,-1.2000000178813934 c0.9000000134110451,-0.9000000134110451 1.2000000178813934,-9.100000135600567 1.2000000178813934,-30.90000046044588 l0,-29.700000442564487 l-3.200000047683716,-1.2000000178813934 c-1.8000000268220901,-0.6000000089406967 -6.500000096857548,-1.4000000208616257 -10.400000154972076,-1.700000025331974 c-6.100000090897083,-0.5000000074505806 -7.200000107288361,-0.30000000447034836 -7.700000114738941,1.1000000163912773 zm8.300000123679638,43.10000064224005 l0,9.500000141561031 l-27.500000409781933,0 l-27.500000409781933,0 l0,-9.500000141561031 l0,-9.500000141561031 l27.500000409781933,0 l27.500000409781933,0 l0,9.500000141561031 z" id="svg_13" class="" opacity="1" fill="#000000" fill-opacity="1" filter="" stroke-width="3" stroke="#000000"/><path d="M231.8307895873604,110.80069834591 c-1.0000000149011612,3.500000052154064 -0.7000000104308128,4.200000062584877 2.400000035762787,5.500000081956387 c1.700000025331974,0.7000000104308128 3.500000052154064,2.1000000312924385 4.000000059604645,3.1000000461935997 c0.6000000089406967,1.0000000149011612 1.0000000149011612,10.600000157952309 1.0000000149011612,21.40000031888485 c0,19.10000028461218 0.5000000074505806,22.800000339746475 3.400000050663948,24.70000036805868 c1.3000000193715096,0.9000000134110451 79.70000118762255,1.1000000163912773 82.00000122189522,0.20000000298023224 c1.4000000208616257,-0.5000000074505806 1.600000023841858,-4.000000059604645 1.600000023841858,-28.500000424683094 c0,-15.300000227987766 -0.30000000447034836,-27.900000415742397 -0.7000000104308128,-28.000000417232513 c-0.5000000074505806,0 -21.600000321865082,-0.10000000149011612 -47.000000700354576,-0.20000000298023224 c-45.40000067651272,-0.20000000298023224 -46.20000068843365,-0.20000000298023224 -46.70000069588423,1.8000000268220901 zm81.40000121295452,27.000000402331352 l0,17.50000026077032 l-30.500000454485416,0 l-30.500000454485416,0 l0,-17.50000026077032 l0,-17.50000026077032 l30.500000454485416,0 l30.500000454485416,0 l0,17.50000026077032 z" id="svg_14" class="" opacity="1" fill="#000000" fill-opacity="1" filter="" stroke-width="3" stroke="#000000"/><path d="M931.0308000062523,113.9006983921036 c-0.5000000074505806,0.4000000059604645 -0.800000011920929,1.8000000268220901 -0.800000011920929,3.0000000447034836 c0,1.8000000268220901 0.800000011920929,2.500000037252903 3.6000000536441803,3.300000049173832 c7.300000108778477,2.0000000298023224 7.400000110268593,2.400000035762787 7.400000110268593,21.800000324845314 c0,17.100000254809856 0,17.400000259280205 2.500000037252903,19.80000029504299 l2.400000035762787,2.500000037252903 l40.90000060945749,0 l41.00000061094761,0 l0.6000000089406967,-2.3000000342726707 c0.30000000447034836,-1.2000000178813934 0.6000000089406967,-4.200000062584877 0.6000000089406967,-6.600000098347664 l0,-4.300000064074993 l-8.200000122189522,0.800000011920929 c-4.6000000685453415,0.5000000074505806 -21.300000317394733,0.9000000134110451 -37.30000055581331,0.9000000134110451 l-29.000000432133675,0 l-0.30000000447034836,-18.200000271201134 c-0.20000000298023224,-17.600000262260437 -0.30000000447034836,-18.30000027269125 -2.400000035762787,-19.400000289082527 c-2.600000038743019,-1.4000000208616257 -19.900000296533108,-2.500000037252903 -21.000000312924385,-1.3000000193715096 z" id="svg_15" class="" opacity="1" fill="#000000" fill-opacity="1" filter="" stroke-width="3" stroke="#000000"/><path d="M446.63079278812984,120.30069848747104 c-7.1000001057982445,2.3000000342726707 -14.500000216066837,8.300000123679638 -17.400000259280205,14.100000210106373 c-2.7000000402331352,5.200000077486038 -2.7000000402331352,14.600000217556953 -0.10000000149011612,19.80000029504299 c2.3000000342726707,4.400000065565109 7.500000111758709,9.300000138580799 12.90000019222498,12.000000178813934 c10.400000154972076,5.200000077486038 29.200000435113907,5.500000081956387 39.800000593066216,0.7000000104308128 c10.900000162422657,-5.000000074505806 16.700000248849392,-12.90000019222498 16.700000248849392,-22.600000336766243 c0,-10.100000150501728 -5.200000077486038,-17.400000259280205 -16.00000023841858,-22.600000336766243 c-5.200000077486038,-2.500000037252903 -7.1000001057982445,-2.8000000417232513 -17.80000026524067,-3.1000000461935997 c-9.900000147521496,-0.20000000298023224 -13.100000195205212,0 -18.100000269711018,1.700000025331974 zm26.600000396370888,10.200000151991844 c12.10000018030405,3.7000000551342964 15.600000232458115,15.400000229477882 7.000000104308128,23.100000344216824 c-4.500000067055225,4.200000062584877 -9.200000137090683,5.700000084936619 -17.600000262260437,5.700000084936619 c-17.00000025331974,0 -27.10000040382147,-11.400000169873238 -19.80000029504299,-22.500000335276127 c4.6000000685453415,-7.000000104308128 18.600000277161598,-9.900000147521496 30.4000004529953,-6.3000000938773155 z" id="svg_16" class="" opacity="1" fill="#000000" fill-opacity="1" filter="" stroke-width="3" stroke="#000000"/><path d="M589.2307949130354,122.70069852323383 c-1.5000000223517418,4.000000059604645 -1.3000000193715096,4.300000064074993 2.600000038743019,4.90000007301569 c6.800000101327896,1.1000000163912773 7.400000110268593,2.500000037252903 7.400000110268593,16.20000024139881 c0,12.90000019222498 1.0000000149011612,17.900000266730785 4.000000059604645,19.500000290572643 c1.1000000163912773,0.6000000089406967 17.700000263750553,1.0000000149011612 41.900000624358654,1.0000000149011612 l40.00000059604645,0 l0.6000000089406967,-4.400000065565109 c1.0000000149011612,-6.70000009983778 0.5000000074505806,-8.200000122189522 -3.0000000447034836,-7.800000116229057 c-1.700000025331974,0.20000000298023224 -18.0000002682209,0.5000000074505806 -36.200000539422035,0.800000011920929 l-33.20000049471855,0.6000000089406967 l-0.30000000447034836,-14.800000220537186 l-0.30000000447034836,-14.900000222027302 l-2.600000038743019,-1.2000000178813934 c-1.4000000208616257,-0.7000000104308128 -6.500000096857548,-1.600000023841858 -11.200000166893005,-1.9000000283122063 l-8.600000128149986,-0.7000000104308128 l-1.1000000163912773,2.7000000402331352 z" id="svg_17" class="" opacity="1" fill="#000000" fill-opacity="1" filter="" stroke-width="3" stroke="#000000"/></g><rect fill="#ffbdbc" stroke-width="1" stroke-dashoffset="" fill-rule="nonzero" x="53" y="27.000001907348633" width="46" height="67" style="color: rgb(251, 214, 169);" class="" id="svg_20" fill-opacity="1" stroke="none"/></g><defs><filter id="f166" xmlns:inkscape="http://www.inkscape.org/namespaces/inkscape" inkscape:menu-tooltip="Draws a black outline around" inkscape:menu="ABCs" inkscape:label="Black outline" color-interpolation-filters="sRGB">
            <feGaussianBlur stdDeviation="2" in="SourceAlpha" result="result0"/>
            <feComposite result="result3" operator="arithmetic" in2="result0" in="SourceGraphic" k2="1" k3="10"/>
            <feComposite k2="1" operator="in" in="result3" result="result4" in2="result3"/>
        </filter></defs></svg>